<?xml version="1.0" encoding="utf-8"?>
<!DOCTYPE svg PUBLIC "-//W3C//DTD SVG 1.1//EN" "http://www.w3.org/Graphics/SVG/1.1/DTD/svg11.dtd">
<svg version="1.1" id="featureVote" xmlns="http://www.w3.org/2000/svg" xmlns:xlink="http://www.w3.org/1999/xlink" x="0px" y="0px"
     width="16px" height="16px" viewBox="7 7 18 18" enable-background="new 0 0 32 32" xml:space="preserve">
    <g>
        <path fill-rule="evenodd" clip-rule="evenodd" fill="#4D4D4D" d="M16.38,12.186c-0.088,0-0.15,0.068-0.15,0.178v0.61
        		c0,0.658-0.64,1.386-1.057,1.803c-0.197,0.154-0.436,0.261-0.699,0.261v3.729c0,0,0.439,0.22,1.098,0.22h2.453
        		c0.197,0,0.379-0.134,0.467-0.309c0,0,0.833-2.302,0.986-2.982c0.022-0.088,0.021-0.134,0.021-0.178
        		c0.021-0.264-0.202-0.48-0.486-0.48h-1.578c-0.263,0-0.479-0.244-0.479-0.507c0-0.264,0.37-0.809,0.37-1.467v-0.329
        		c0-0.307-0.24-0.548-0.548-0.548H16.38L16.38,12.186L16.38,12.186z M12.162,19.205h1.874v-4.167h-2.943
        		C11.032,15.349,11,15.671,11,16C11,17.22,11.437,18.337,12.162,19.205L12.162,19.205z M13.597,18.547c0.132,0,0.22,0.088,0.22,0.22
        		s-0.088,0.219-0.22,0.219c-0.131,0-0.219-0.087-0.219-0.219S13.466,18.547,13.597,18.547z"/>
        	<path fill-rule="evenodd" clip-rule="evenodd" fill="#4D4D4D" d="M16,8c4.419,0,8,3.582,8,8c0,4.419-3.581,8-8,8
        		c-4.418,0-7.999-3.581-7.999-8C8.001,11.582,11.582,8,16,8L16,8z M16,10c-3.313,0-6,2.687-6,6s2.687,6,6,6
        		c3.314,0,6.001-2.687,6.001-6S19.314,10,16,10z"/>
    </g>
</svg>