<?xml version="1.0" encoding="utf-8"?>
<!DOCTYPE svg PUBLIC "-//W3C//DTD SVG 1.1//EN" "http://www.w3.org/Graphics/SVG/1.1/DTD/svg11.dtd">
<svg version="1.1" id="forums" xmlns="http://www.w3.org/2000/svg" xmlns:xlink="http://www.w3.org/1999/xlink" x="0px" y="0px"
     width="16px" height="16px" viewBox="7 7 18 18" enable-background="new 0 0 32 32" xml:space="preserve">
    <g>
        <path fill-rule="evenodd" clip-rule="evenodd" fill="#4D4D4D" d="M14.001,8c3.313,0,6,2.687,6,6L20,14.023
        		C19.835,14.008,19.669,14,19.5,14c-0.522,0-1.026,0.072-1.505,0.208c0.004-0.069,0.006-0.138,0.006-0.208c0-2.21-1.791-4-4-4
        		C11.79,10,10,11.791,10,14c0,0.679,0.169,1.341,0.499,1.936l0.251,0.453v0.862h0.862l0.452,0.25c0.595,0.33,1.256,0.5,1.937,0.5
        		c0.069,0,0.139-0.002,0.207-0.006c-0.135,0.479-0.207,0.983-0.207,1.505c0,0.169,0.008,0.335,0.022,0.5h-0.022
        		c-1.055,0-2.046-0.272-2.906-0.75H8.75v-2.344C8.272,16.045,8,15.055,8,14C8,10.687,10.687,8,14.001,8L14.001,8z M19.5,15
        		c-2.485,0-4.5,2.015-4.5,4.5s2.015,4.5,4.5,4.5c0.791,0,1.534-0.204,2.18-0.563h1.758V21.68C23.796,21.034,24,20.291,24,19.5
        		C24,17.015,21.985,15,19.5,15L19.5,15z M17.5,19c-0.276,0-0.5,0.224-0.5,0.5s0.224,0.5,0.5,0.5s0.5-0.224,0.5-0.5
        		S17.776,19,17.5,19L17.5,19z M21.5,19c0.276,0,0.501,0.224,0.501,0.5S21.776,20,21.5,20S21,19.776,21,19.5S21.224,19,21.5,19
        		L21.5,19z M19.5,19c-0.276,0-0.5,0.224-0.5,0.5s0.224,0.5,0.5,0.5s0.5-0.224,0.5-0.5S19.776,19,19.5,19z"/>
    </g>
</svg>