<?xml version="1.0" encoding="utf-8"?>
<!DOCTYPE svg PUBLIC "-//W3C//DTD SVG 1.1//EN" "http://www.w3.org/Graphics/SVG/1.1/DTD/svg11.dtd">
<svg version="1.1" id="javaEmptyPackageFolder" xmlns="http://www.w3.org/2000/svg" xmlns:xlink="http://www.w3.org/1999/xlink" x="0px" y="0px"
     width="16px" height="16px" viewBox="7 7 18 18" enable-background="new 0 0 32 32" xml:space="preserve">
    <g>
            <path fill-rule="evenodd" clip-rule="evenodd" fill="#808080" d="M9.25,9h5.751V8h2v1h5.75c0.138,0,0.25,0.112,0.25,0.25V15h1v2h-1
                    v5.75c0,0.138-0.112,0.25-0.25,0.25h-5.75v1h-2v-1H9.25C9.113,23,9,22.888,9,22.75V17H8.001v-2H9V9.25C9,9.112,9.113,9,9.25,9
                    L9.25,9z M11.001,15h4v-4h-4V15L11.001,15z M17.001,11v4h4v-4H17.001L17.001,11z M21.001,17h-4v4h4V17L21.001,17z M15.001,21v-4h-4
                    v4H15.001z"/>
        </g>
</svg>
