<?xml version="1.0" encoding="UTF-8" standalone="no"?>
<!-- The icon can be used freely in both personal and commercial projects with no attribution required, but always appreciated. 
You may NOT sub-license, resell, rent, redistribute or otherwise transfer the icon without express written permission from iconmonstr.com -->

<svg
   xmlns:dc="http://purl.org/dc/elements/1.1/"
   xmlns:cc="http://creativecommons.org/ns#"
   xmlns:rdf="http://www.w3.org/1999/02/22-rdf-syntax-ns#"
   xmlns:svg="http://www.w3.org/2000/svg"
   xmlns="http://www.w3.org/2000/svg"
   xmlns:sodipodi="http://sodipodi.sourceforge.net/DTD/sodipodi-0.dtd"
   xmlns:inkscape="http://www.inkscape.org/namespaces/inkscape"
   version="1.1"
   x="0px"
   y="0px"
   width="512px"
   height="512px"
   viewBox="0 0 512 512"
   enable-background="new 0 0 512 512"
   xml:space="preserve"
   id="svg2986"
   inkscape:version="0.48.3.1 r9886"
   sodipodi:docname="iconmonstr-database-5-icon.svg"
   inkscape:export-filename="/home/sunix/Téléchargements/schema.png"
   inkscape:export-xdpi="2.8125"
   inkscape:export-ydpi="2.8125"><metadata
   id="metadata2993"><rdf:RDF><cc:Work
       rdf:about=""><dc:format>image/svg+xml</dc:format><dc:type
         rdf:resource="http://purl.org/dc/dcmitype/StillImage" /><dc:title></dc:title></cc:Work></rdf:RDF></metadata><defs
   id="defs2991" /><sodipodi:namedview
   pagecolor="#ffffff"
   bordercolor="#666666"
   borderopacity="1"
   objecttolerance="10"
   gridtolerance="10"
   guidetolerance="10"
   inkscape:pageopacity="0"
   inkscape:pageshadow="2"
   inkscape:window-width="835"
   inkscape:window-height="480"
   id="namedview2989"
   showgrid="false"
   inkscape:zoom="0.4609375"
   inkscape:cx="467.52542"
   inkscape:cy="256"
   inkscape:window-x="50"
   inkscape:window-y="24"
   inkscape:window-maximized="0"
   inkscape:current-layer="svg2986" />
<path
   id="database-icon"
   d="M422.122,355.606v46.524C422.122,435.196,347.747,462,256,462c-91.747,0-166.122-26.804-166.122-59.869  v-46.524c10.283,7.391,23.186,13.907,38.485,19.422C162.918,387.481,208.248,394.34,256,394.34  c47.753,0,93.082-6.858,127.638-19.312C398.938,369.514,411.839,362.997,422.122,355.606z M383.638,277.788  c-34.556,12.454-79.885,19.312-127.638,19.312c-47.752,0-93.082-6.858-127.638-19.312c-15.299-5.514-28.201-12.03-38.484-19.421  v46.104c0,33.065,74.375,59.869,166.122,59.869c91.747,0,166.122-26.804,166.122-59.869v-46.104  C411.839,265.758,398.938,272.274,383.638,277.788z M256,50c-91.747,0-166.122,26.805-166.122,59.87  c0,33.066,74.375,59.871,166.122,59.871c91.747,0,166.122-26.805,166.122-59.871C422.122,76.805,347.747,50,256,50z   M383.638,180.428C349.082,192.881,303.753,199.74,256,199.74c-47.752,0-93.082-6.859-127.638-19.312  c-15.299-5.514-28.201-12.031-38.484-19.422v46.225c0,33.065,74.375,59.87,166.122,59.87c91.747,0,166.122-26.805,166.122-59.87  v-46.224C411.839,168.397,398.938,174.914,383.638,180.428z"
   style="fill:#575757;fill-opacity:1" />
</svg>