<?xml version="1.0" encoding="utf-8"?>
<!-- Generator: Adobe Illustrator 16.0.0, SVG Export Plug-In . SVG Version: 6.00 Build 0)  -->
<!DOCTYPE svg PUBLIC "-//W3C//DTD SVG 1.1//EN" "http://www.w3.org/Graphics/SVG/1.1/DTD/svg11.dtd">
<svg version="1.1" id="interface" xmlns="http://www.w3.org/2000/svg" xmlns:xlink="http://www.w3.org/1999/xlink"
	x="0px" y="0px"  width="16px" height="16px" viewBox="7 7 18 18"
	enable-background="new 0 0 32 32" xml:space="preserve">
<g>
	<path fill-rule="evenodd" clip-rule="evenodd" fill="#9A5CFF" d="M16,24c4.406,0,8-3.594,8-8c0-4.406-3.594-8-8-8
		c-4.406,0-8,3.594-8,8C8,20.406,11.594,24,16,24z"/>
	<path fill-rule="evenodd" clip-rule="evenodd" fill="#FFFFFF" d="M15.25,12h1.501C16.888,12,17,12.112,17,12.25v7.5
		c0,0.138-0.112,0.25-0.249,0.25H15.25C15.112,20,15,19.888,15,19.75v-7.5C15,12.112,15.112,12,15.25,12z"/>
</g>
</svg>
