<?xml version="1.0" encoding="UTF-8" standalone="no"?>
<svg width="787px" height="447px" viewBox="0 0 787 447" version="1.1" xmlns="http://www.w3.org/2000/svg" xmlns:xlink="http://www.w3.org/1999/xlink" xmlns:sketch="http://www.bohemiancoding.com/sketch/ns">
    <g id="Page-1" stroke="none" stroke-width="1" fill="none" fill-rule="evenodd">
        <g id="Layer_2" transform="translate(140.000000, 103.000000)" fill="#dbdbdb">
            <g id="Group">
                <path d="M101.462,81.061 C117.283,81.061 127.827,83.981 133.099,89.822 C138.366,95.663 139.621,105.689 136.865,119.896 C133.986,134.691 128.442,145.251 120.224,151.578 C112.006,157.906 99.5,161.066 82.711,161.066 L57.381,161.066 L72.93,81.061 L101.462,81.061 L101.462,81.061 Z M0,242.057 L41.643,242.057 L51.52,191.234 L87.189,191.234 C102.928,191.234 115.875,189.584 126.039,186.274 C136.204,182.969 145.441,177.426 153.756,169.644 C160.734,163.229 166.38,156.154 170.704,148.417 C175.023,140.686 178.092,132.15 179.906,122.816 C184.312,100.156 180.987,82.506 169.941,69.861 C158.895,57.216 141.322,50.894 117.232,50.894 L37.154,50.894 L0,242.057 L0,242.057 Z" id="Shape1"></path>
                <path d="M210.49,0.071 L251.804,0.071 L241.926,50.894 L278.732,50.894 C301.889,50.894 317.864,54.936 326.656,63.011 C335.447,71.091 338.081,84.181 334.566,102.277 L317.28,191.234 L275.31,191.234 L291.746,106.652 C293.616,97.03 292.93,90.467 289.682,86.968 C286.434,83.468 279.523,81.717 268.953,81.717 L235.933,81.717 L214.65,191.233 L173.335,191.233 L210.49,0.071 L210.49,0.071 Z" id="Shape2"></path>
                <path d="M426.49,81.061 C442.311,81.061 452.855,83.981 458.127,89.822 C463.396,95.663 464.65,105.689 461.893,119.896 C459.014,134.691 453.472,145.251 445.252,151.578 C437.034,157.906 424.528,161.066 407.739,161.066 L382.41,161.066 L397.959,81.061 L426.49,81.061 L426.49,81.061 Z M325.029,242.057 L366.672,242.057 L376.548,191.234 L412.217,191.234 C427.956,191.234 440.903,189.584 451.068,186.274 C461.232,182.969 470.469,177.426 478.785,169.644 C485.764,163.229 491.409,156.154 495.733,148.417 C500.051,140.686 503.121,132.15 504.934,122.816 C509.34,100.156 506.016,82.506 494.969,69.861 C483.923,57.216 466.35,50.894 442.26,50.894 L362.184,50.894 L325.029,242.057 L325.029,242.057 Z" id="Shape3"></path>
            </g>
        </g>
        <ellipse id="Oval-1" stroke="#dbdbdb" stroke-width="32" cx="393.5" cy="223.5" rx="377.5" ry="207.5"></ellipse>
    </g>
</svg>