<svg xmlns="http://www.w3.org/2000/svg" xmlns:xlink="http://www.w3.org/1999/xlink" width="512px" height="450px" viewBox="0 0 512 450" version="1.1" style="margin-top: 2px;">
    <g id="Page-1" stroke="none" stroke-width="1">
        <g id="bower-logo">
            <path d="M434.625,32.496 C366.803,32.496 316.226,104.176 339.607,155.663 C435.596,155.664 396.518,67.058 434.625,32.496 L434.625,32.496 Z"></path>
            <path d="M456.534,225.992 C456.534,203.202 347.907,191.863 287.395,188.329 C226.884,184.796 5.803,226.718 31.975,282.142 C58.148,337.568 124.556,396.5 199.288,396.5 C238.004,396.5 282.872,369.216 285.341,319.12 C330.121,304.163 456.534,303.371 456.534,225.992 L456.534,225.992 Z"></path>
            <path d="M400.981,241.143 C408.001,248.247 385.759,267.438 366.375,258.405 C375.106,278.093 336.699,294.469 318.039,280.431 C320.037,296.296 281.917,305.427 269.754,287.723 C272.89,296.164 275.511,302.621 277.983,307.932 L277.937,307.783 C284.261,316.062 292.866,322.722 330.331,322.722 C388.058,322.722 481.301,278.873 481.301,246.683 C481.301,220.04 471.309,217.543 454.105,219.485 C436.897,221.427 346.935,230.776 327.799,227.019 C338.182,229.229 390.54,239.259 400.981,241.143 L400.981,241.143 Z"></path>
            <path d="M198.51,17.82 C88.128,17.82 -22.669,127.541 30.059,278.876 C65.876,300.406 113.635,291.871 124.337,280.408 C140.515,285.579 154.949,287.755 167.85,287.755 C234.897,287.755 292.19,216.52 292.19,127.498 C292.189,36.196 231.93,17.82 198.51,17.82 L198.51,17.82 Z"></path>
            <path d="M153.308,115.522 C153.308,140.154 173.277,160.125 197.911,160.125 C222.544,160.125 242.514,140.154 242.514,115.522 C242.514,90.889 222.544,70.919 197.911,70.919 C173.277,70.92 153.308,90.89 153.308,115.522 L153.308,115.522 Z"></path>
            <path d="M171.207,115.522 C171.207,130.269 183.163,142.226 197.911,142.226 C212.659,142.226 224.614,130.269 224.614,115.522 C224.614,100.774 212.659,88.818 197.911,88.818 C183.163,88.819 171.207,100.774 171.207,115.522 L171.207,115.522 Z" fill="#000000"></path>
            <ellipse id="Oval" cx="197.56" cy="103.675" rx="15.56" ry="9.675"></ellipse>
            <path d="M289.401,92.675 C269.126,104.482 269.797,142.705 278.806,161.356 C296.251,154.89 320.558,142.065 324.333,139.771 C328.106,137.478 322.245,128.782 336.892,128.782 C357.207,128.782 375.576,135.13 380.848,137.416 C377.511,130.547 335.758,92.675 289.401,92.675 L289.401,92.675 Z"></path>
            <path d="M502.214,219.797 C475.879,194.492 344.197,178.697 302.646,174.099 C304.66,169.345 306.372,164.43 307.788,159.368 C313.453,156.887 319.564,154.579 325.889,152.652 C326.659,154.924 330.286,163.632 332.354,167.764 C415.907,170.069 420.198,105.674 423.594,88.032 C426.917,70.782 426.748,54.115 455.406,23.644 C412.709,11.201 351.31,42.928 330.742,90.15 C323.014,87.254 315.268,85.115 307.606,83.793 C302.118,61.647 273.529,-0.052 198.509,-0.052 C149.924,-0.052 100.928,20.011 64.088,54.993 C44.236,73.843 28.643,96.227 17.744,121.523 C5.97,148.851 -9.23705556e-14,178.94 -9.23705556e-14,210.957 C-9.23705556e-14,322.462 76.126,420.18 119.139,420.18 C137.923,420.18 154.082,406.113 157.875,393.505 C161.056,402.15 170.813,429.027 174.017,435.869 C178.754,445.986 200.659,454.741 210.246,444.242 C222.572,451.091 245.189,455.215 257.516,436.953 C281.255,441.975 302.244,427.818 302.7,410.927 C314.349,410.305 320.063,393.949 317.519,380.926 C315.644,371.335 295.615,336.926 287.8,325.049 C303.268,337.629 342.444,341.191 347.201,325.057 C372.137,344.628 410.998,334.358 414.08,318.438 C444.381,326.312 479.134,309.021 473.428,288.079 C522.102,284.711 515.872,232.921 502.214,219.797 L502.214,219.797 Z M375.456,133.958 C362.635,128.925 346.372,125.741 334.974,125.741 C318.81,125.741 308.965,134.901 293.756,134.901 C290.563,134.901 282.944,134.917 276.83,132.739 C280.851,136.956 285.855,139.244 295.555,139.244 C301.348,139.244 312.818,136.286 322.108,133.492 C322.237,135.448 322.442,137.39 322.718,139.318 C305.316,143.479 287.054,154.549 281.769,157.423 C270.014,131.465 280.119,106.918 289.466,95.586 C331.331,95.686 365.144,124.433 375.456,133.958 L375.456,133.958 Z M393.557,132.001 L387.151,126.022 C380.576,119.863 373.721,114.291 366.682,109.344 C377.165,88.543 390.34,65.83 406.98,51.779 C388.666,59.16 370.583,81.224 359.891,104.809 C354.443,101.345 348.911,98.255 343.33,95.554 C358.243,63.72 392.898,37.134 431.092,35.057 C405.509,58.257 415.114,104.563 393.557,132.001 L393.557,132.001 Z M341.006,153.7 C338.185,147.586 335.329,137.43 335.678,131.461 C340.431,131.349 349.546,133.131 351.013,133.477 C350.456,136.28 350.158,142.421 350.147,143.216 C351.05,141.66 353.557,136.294 354.577,134.187 C363.704,135.931 375.703,138.846 382.738,142.125 C374.478,147.473 360.439,153.293 341.006,153.7 L341.006,153.7 Z M283.971,81.911 C250.59,115.743 263.772,158.541 275.925,177.887 C258.635,206.648 224.645,226.324 185.16,235.276 C229.488,235.276 255.557,223.867 270.723,212.69 C280.4,205.559 285.651,198.52 288.331,194.602 C354.051,198.853 458.114,220.025 468.266,226.883 C472.34,229.636 476.544,235.725 477.161,241.551 C427.774,234.637 338.754,227.363 315.442,226.127 C331.991,228.474 452.683,251.329 473.605,256.679 C467.237,267.063 452.733,274.394 430.872,269.3 C442.684,285.393 419.747,304.699 387.801,294.066 C394.833,309.865 366.388,324.087 334.06,307.621 C334.471,323.426 293.955,325.247 277.937,307.783 C278.243,309.865 280.144,313.849 280.965,315.592 C275.803,361.742 238.004,390.375 199.288,390.375 C104.494,390.375 21.913,313.386 21.913,210.958 C21.913,102.666 101.943,21.862 198.51,21.862 C253.842,21.861 278.836,65.412 283.971,81.911 L283.971,81.911 Z"></path>
        </g>
    </g>
</svg>