<?xml version="1.0" encoding="UTF-8" standalone="no"?>
<svg width="598px" height="498px" viewBox="0 0 598 498" version="1.1" xmlns="http://www.w3.org/2000/svg" xmlns:xlink="http://www.w3.org/1999/xlink" xmlns:sketch="http://www.bohemiancoding.com/sketch/ns">
    <g id="Page-1" stroke="none" stroke-width="1" fill="none" fill-rule="evenodd">
        <g id="c" fill="#dbdbdb">
            <path d="M352.421667,107.848125 L378.663333,63.495 C340.75,21.165 288.188333,0 220.978333,0 C157.215,0 104.418333,20.4646875 62.5883333,61.3940625 C20.8366667,102.245625 -1.42108547e-13,155.625 -1.42108547e-13,221.532187 C-1.42108547e-13,287.439375 20.9933333,340.81875 63.0583333,381.670312 C105.201667,422.599687 157.763333,443.064375 220.978333,443.064375 C284.35,443.064375 335.345,424.078125 374.12,386.26125 L348.74,337.70625 C338.713333,350.389687 322.106667,362.372812 298.92,373.5 C275.655,384.627187 250.51,390.229687 223.406667,390.229687 C176.328333,390.229687 137.788333,374.745 107.708333,343.775625 C77.6283333,312.80625 62.5883333,272.421562 62.5883333,222.777187 C62.5883333,173.055 77.785,132.748125 108.021667,101.934375 C138.258333,71.0428125 176.72,55.6359375 223.406667,55.6359375 C277.221667,55.6359375 320.226667,72.988125 352.421667,107.848125 L352.421667,107.848125 Z"></path>
        </g>
        <text id="plus1" font-family="Gill Sans" font-size="288" font-weight="bold" fill="#dbdbdb">
            <tspan x="212" y="329">+</tspan>
        </text>
        <text id="plus2" font-family="Gill Sans" font-size="288" font-weight="bold" fill="#dbdbdb">
            <tspan x="405" y="329">+</tspan>
        </text>
    </g>
</svg>