<?xml version="1.0" encoding="UTF-8" standalone="no"?>
<svg width="15px" height="15px" viewBox="0 0 15 15" version="1.1" xmlns="http://www.w3.org/2000/svg" xmlns:xlink="http://www.w3.org/1999/xlink">
    <defs></defs>
    <g id="Page-1" stroke="none" stroke-width="1" fill="none" fill-rule="evenodd">
        <g fill="#dbdbdb">
            <path d="M5.387,12.548 L5.758,14.03 C5.891,14.563 6.45,15 7,15 L8,15 C8.55,15 9.109,14.563 9.242,14.03 L9.613,12.548 C9.746,12.015 10.288,11.702 10.816,11.854 L12.283,12.274 C12.812,12.425 13.471,12.16 13.745,11.683 L14.245,10.816 C14.519,10.339 14.422,9.637 14.026,9.254 L12.928,8.193 C12.532,7.81 12.532,7.185 12.929,6.803 L14.025,5.742 C14.421,5.36 14.519,4.658 14.245,4.181 L13.744,3.314 C13.469,2.837 12.811,2.572 12.283,2.723 L10.816,3.143 C10.287,3.294 9.746,2.982 9.612,2.449 L9.242,0.969 C9.109,0.437 8.55,0 8,0 L7,0 C6.45,0 5.891,0.437 5.758,0.97 L5.388,2.45 C5.254,2.983 4.713,3.296 4.184,3.145 L2.717,2.725 C2.188,2.573 1.529,2.839 1.255,3.315 L0.755,4.182 C0.481,4.659 0.578,5.361 0.975,5.744 L2.071,6.803 C2.466,7.186 2.466,7.811 2.071,8.194 L0.973,9.255 C0.578,9.638 0.479,10.34 0.754,10.817 L1.255,11.684 C1.529,12.161 2.188,12.426 2.717,12.275 L4.184,11.855 C4.712,11.702 5.254,12.015 5.387,12.548 L5.387,12.548 Z M7.5,5.5 C8.604,5.5 9.5,6.395 9.5,7.5 C9.5,8.604 8.604,9.5 7.5,9.5 C6.396,9.5 5.5,8.604 5.5,7.5 C5.5,6.395 6.396,5.5 7.5,5.5 L7.5,5.5 Z" id="Shape"></path>
        </g>
    </g>
</svg>