<?xml version="1.0" encoding="UTF-8" standalone="no"?>
<svg width="464px" height="422px" viewBox="0 0 464 422" version="1.1" xmlns="http://www.w3.org/2000/svg" xmlns:xlink="http://www.w3.org/1999/xlink">
    <title>re-run-icon</title>
    <g id="Page-1" stroke="none" stroke-width="1" fill="none" fill-rule="evenodd">
        <g id="run-v2" transform="translate(41.000000, 1.000000)">
            <g >
                <path d="M0,210.498968 C0,326.478277 94.0198544,420.503674 210,420.503674 C325.981165,420.503674 420,326.479309 420,210.498968 C420,94.5175956 328,0.49632598 210,0.49632598 C92,0.49632598 0,94.5165637 0,210.498968 Z" id="play-2-icon" fill="#46AF00"></path>
                <path d="M150.470097,326.196578 L150.470097,99.9586078 L332.740922,213.078625 L150.470097,326.196578 L150.470097,326.196578 Z" id="play-2-icon-path" fill="#DBDBDB"></path>
            </g>
        </g>
        <path d="M433.810602,316.745914 C396.206759,381.878641 326.71034,422 251.501634,422 C176.292928,422 106.796509,381.878641 69.191645,316.745914 C50.5153697,284.395087 41,255.00391 41,229.217091 C41,200.367191 40.6914063,204.623051 42.6914063,180.464844 C69.1916456,180.464844 190.796424,183.464844 194.617188,183.464844 C196.197351,183.464844 196.910151,225.742771 194.910156,229.217091 C192.910161,232.69141 82.8982133,229.217091 82.8982133,229.217091 C82.8982134,252.095707 89.5871224,270.273904 104.610476,296.296555 C134.908476,348.773948 190.90257,381.101281 251.500613,381.101281 C312.096612,381.101281 368.090706,348.77497 398.390749,296.296555 C424.97045,250.259703 428.227026,194.853676 408.171711,146.516412 L445.299529,129.338909 C470.89143,189.686941 467.07711,259.127323 433.810602,316.745914 Z M400.051725,62.3266269 L373.355571,93.5343985 C380.954587,101.385629 387.840589,110.018304 393.884866,119.361943 L431.318116,102.043473 C422.421782,87.4248217 411.899203,74.1239021 400.051725,62.3266269 L400.051725,62.3266269 Z M304.501682,7.76333527 C288.131977,3.50471199 271.122807,1.18693405 253.794925,1 L253.794925,41.9181273 C266.442246,42.0887174 278.877092,43.6505872 290.904356,46.5250813 L304.501682,7.76333527 L304.501682,7.76333527 Z M223.149612,2.91020042 C203.740914,5.54566409 184.968616,10.8543869 167.311808,18.5615859 L192.452202,52.5008419 C202.347573,48.8234508 212.618861,46.0562139 223.149612,44.2726792 L223.149612,2.91020042 L223.149612,2.91020042 Z M164.317761,66.0040181 L139.885275,33.0208837 C126.447305,41.424744 113.937888,51.3414422 102.642026,62.6340976 L131.563029,91.5547363 C141.43082,81.6891129 152.441681,73.11977 164.317761,66.0040181 L164.317761,66.0040181 Z M376.81747,42.3430703 C363.418317,32.4182001 348.878138,24.119554 333.517685,17.6197651 L319.941812,56.3222643 C330.570628,61.0119595 340.700947,66.7640122 350.149918,73.5171325 L376.81747,42.3430703 L376.81747,42.3430703 Z" id="power-on-5-icon" fill="#DBDBDB"></path>
    </g>
</svg>