<?xml version="1.0" encoding="UTF-8" standalone="no"?>
<svg width="167px" height="173px" viewBox="0 0 167 173" version="1.1" xmlns="http://www.w3.org/2000/svg" xmlns:xlink="http://www.w3.org/1999/xlink" xmlns:sketch="http://www.bohemiancoding.com/sketch/ns">
    <g id="Page-1" stroke="none" stroke-width="1" fill="none" fill-rule="evenodd">
        <g id="Group" transform="translate(20.000000, 14.106164)">
            <rect id="Rectangle-1" x="0" y="0" width="126.5" height="149.893836"></rect>
            <path d="M125.996861,40.4684775 L125.996861,106.894629 L65.9783317,137.826112 L65.9783317,71.6422668 L119.79995,43.3485351 L63.2337902,13.2713207 L6.86532663,43.0026995 L60.5219862,71.514603 L60.5219862,137.826112 L0.503139447,106.894629 L0.503139447,40.1223243 L0.551133166,40.1515409 L0.503139447,40.047695 L63.25,6.98657708 L125.996861,40.4684775 L125.996861,40.4684775 Z" id="Shape" fill="#dbdbdb"></path>
            <path d="M63.4089196,20.9597313 C50.8579335,20.9597313 40.6834171,30.9843044 40.6834171,43.3505155 C40.6834171,55.7163965 50.8579335,65.7415198 63.4089196,65.7415198 C75.960016,65.7415198 86.1344221,55.7165063 86.1344221,43.3505155 C86.1344221,30.9844144 75.960016,20.9597313 63.4089196,20.9597313 L63.4089196,20.9597313 L63.4089196,20.9597313 Z M56.9667911,55.6863612 L56.9667911,31.564543 L76.6915347,43.6255621 L56.9667911,55.6863612 L56.9667911,55.6863612 Z" fill="#dbdbdb"></path>
        </g>
    </g>
</svg>