<?xml version="1.0" encoding="UTF-8" standalone="no"?>
<svg viewBox="0 0 257 449" version="1.1" xmlns="http://www.w3.org/2000/svg" xmlns:xlink="http://www.w3.org/1999/xlink">
    <defs/>
    <g id="Page-1" stroke="none" stroke-width="1">
        <g transform="translate(129.000000, 225.000000) rotate(-270.000000) translate(-129.000000, -225.000000) translate(-95.000000, 97.000000)">
            <path d="M0,192 L32,192 L32,64 L0,64 L0,192 L0,192 Z M64,192 L96,192 L96,64 L64,64 L64,192 L64,192 Z M128,192 L160,192 L160,64 L128,64 L128,192 L128,192 Z M448,128 L320,0 L320,64 L192,64 L192,192 L320,192 L320,256 L448,128 L448,128 Z" id="Shape"/>
        </g>
    </g>
</svg>