<?xml version="1.0" encoding="utf-8"?>
<!DOCTYPE svg PUBLIC "-//W3C//DTD SVG 1.1//EN" "http://www.w3.org/Graphics/SVG/1.1/DTD/svg11.dtd">
<svg version="1.1" id="rename" xmlns="http://www.w3.org/2000/svg" xmlns:xlink="http://www.w3.org/1999/xlink" x="0px" y="0px"
     width="16px" height="16px" viewBox="7 7 18 18" enable-background="new 0 0 32 32" xml:space="preserve">
    <g>
        <path fill-rule="evenodd" clip-rule="evenodd" fill="#4D4D4D" d="M9,8h10.758l-4,4H10v10h12v-7.758l2-2V23c0,0.55-0.45,1-1,1H9
        		c-0.55,0-1-0.45-1-1V9C8,8.45,8.45,8,9,8z"/>
        	<path fill-rule="evenodd" clip-rule="evenodd" fill="#4D4D4D" d="M22.294,8.292l1.414,1.415c0.39,0.389,0.39,1.025,0,1.414
        		l-7.071,7.071l-2.828-2.828l7.071-7.071C21.269,7.903,21.905,7.903,22.294,8.292L22.294,8.292z M13.102,16.07l-1.414,4.242
        		l4.243-1.414L13.102,16.07z"/>
    </g>
</svg>