<?xml version="1.0" encoding="UTF-8"?>
<svg width="12px" height="12px" viewBox="0 0 11 12" version="1.1" xmlns="http://www.w3.org/2000/svg"
     xmlns:xlink="http://www.w3.org/1999/xlink">
    <g transform="translate(-557.0, -552.0)">
        <g transform="translate(310.0, 210.5)">
            <path d="M252.9,347.2 L252.9,344.8 L252.0,344.8 L252.0,347.2 L249.7,347.2 L249.7,348.0 L252.1,348.0 L252.1,350.4 L252.9,350.4 L252.9,348.0 L255.3,348.0 L255.3,347.2 L252.9,347.2 Z M247,343.2 C247,342.6 247.4,342.2 248.0,342.0 L257.0,342.0 C258.0,342.2 258,343.0 258,343.2 L258,352.2 C258,352.7 257.6,353.2 257.0,353.2 L248.0,353.2 C247.4,353.2 247,352.7 247,352.2 L247,343.2 Z"
                  fill-rule="evenodd" stroke="none"/>
        </g>
    </g>
</svg>