<?xml version="1.0" encoding="UTF-8" standalone="no"?>
<!-- Created with Inkscape (http://www.inkscape.org/) -->

<svg
   xmlns:dc="http://purl.org/dc/elements/1.1/"
   xmlns:cc="http://creativecommons.org/ns#"
   xmlns:rdf="http://www.w3.org/1999/02/22-rdf-syntax-ns#"
   xmlns:svg="http://www.w3.org/2000/svg"
   xmlns="http://www.w3.org/2000/svg"
   version="1.1"
   viewBox="0 0 32 32.000001"
   id="svg2"
   xml:space="preserve"><metadata
     id="metadata22"></metadata><defs
     id="defs20" /><g
     transform="translate(-7.3563764e-6,0)"
     id="Layer_1" /><g
     id="g2997"><g
       transform="translate(-7.3563764e-6,0)"
       id="trash_x5F_stroke"><g
         id="g6"><path
           d="M 32,4 H 28 24 C 24,1.789 22.211,0 20,0 H 12 C 9.789,0 8,1.789 8,4 H 4 0 v 4 h 4 v 18 c 0,3.312 2.688,6 6,6 h 12 c 3.312,0 6,-2.688 6,-6 V 8 h 4 V 4 z m -8,22 c 0,1.102 -0.898,2 -2,2 H 10 C 8.898,28 8,27.102 8,26 V 8 h 16 v 18 z"
           id="path8"
           style="fill:#ffffff;fill-opacity:1;stroke:none" /><circle
           cx="12"
           cy="22"
           r="2"
           id="circle10"
           style="fill:#ffffff;fill-opacity:1" /><circle
           cx="12"
           cy="14"
           r="2"
           id="circle12"
           style="fill:#ffffff;fill-opacity:1" /><circle
           cx="20"
           cy="22"
           r="2"
           id="circle14"
           style="fill:#ffffff;fill-opacity:1" /><circle
           cx="20"
           cy="14"
           r="2"
           id="circle16"
           style="fill:#ffffff;fill-opacity:1" /></g></g></g></svg>