<?xml version="1.0" encoding="UTF-8" standalone="no"?>
<svg width="8px" height="8px" viewBox="0 0 8 8" version="1.1" xmlns="http://www.w3.org/2000/svg" xmlns:xlink="http://www.w3.org/1999/xlink" >
    <g stroke="none" stroke-width="1" fill="none" fill-rule="evenodd">
        <g transform="translate(-210.000000, -604.000000)" fill="#545B64">
            <g transform="translate(23.000000, 570.000000)">
                <g transform="translate(0.000000, 31.000000)">
                    <path d="M192.785721,7.30356702 C192.785721,7.21316513 192.715409,7.14285254 192.625007,7.14285254 L190.857147,7.14285254 L190.857147,5.37499329 C190.857147,5.2845914 190.786835,5.21427882 190.696433,5.21427882 L190.375004,5.21427882 C190.284602,5.21427882 190.21429,5.2845914 190.21429,5.37499329 L190.21429,7.14285254 L188.44643,7.14285254 C188.356028,7.14285254 188.285716,7.21316513 188.285716,7.30356702 L188.285716,7.62499598 C188.285716,7.71539787 188.356028,7.78571045 188.44643,7.78571045 L190.21429,7.78571045 L190.21429,9.5535697 C190.21429,9.6439716 190.284602,9.71428418 190.375004,9.71428418 L190.696433,9.71428418 C190.786835,9.71428418 190.857147,9.6439716 190.857147,9.5535697 L190.857147,7.78571045 L192.625007,7.78571045 C192.715409,7.78571045 192.785721,7.71539787 192.785721,7.62499598 L192.785721,7.30356702 Z M193.428579,9.5535697 C193.428579,9.99553452 193.066972,10.3571421 192.625007,10.3571421 L188.44643,10.3571421 C188.004465,10.3571421 187.642858,9.99553452 187.642858,9.5535697 L187.642858,5.37499329 C187.642858,4.93302848 188.004465,4.57142091 188.44643,4.57142091 L192.625007,4.57142091 C193.066972,4.57142091 193.428579,4.93302848 193.428579,5.37499329 L193.428579,9.5535697 Z M194.071437,5.37499329 C194.071437,4.57644324 193.423557,3.928563 192.625007,3.928563 L188.44643,3.928563 C187.64788,3.928563 187,4.57644324 187,5.37499329 L187,9.5535697 C187,10.3521198 187.64788,11 188.44643,11 L192.625007,11 C193.423557,11 194.071437,10.3521198 194.071437,9.5535697 L194.071437,5.37499329 Z" ></path>
                </g>
            </g>
        </g>
    </g>
</svg>