<?xml version="1.0" encoding="utf-8"?>
<!-- Generator: Adobe Illustrator 18.0.0, SVG Export Plug-In . SVG Version: 6.00 Build 0)  -->
<!DOCTYPE svg PUBLIC "-//W3C//DTD SVG 1.1//EN" "http://www.w3.org/Graphics/SVG/1.1/DTD/svg11.dtd">
<svg version="1.1" id="Layer_1" xmlns="http://www.w3.org/2000/svg" xmlns:xlink="http://www.w3.org/1999/xlink" x="0px" y="0px"
	 width="128px" height="128px" viewBox="0 0 128 128" enable-background="new 0 0 128 128" xml:space="preserve">
<path d="M113,119.4V35.8c0-5.5-2.7-10.8-6.6-14.8L92.6,7.3C88.7,3.4,83.1,1,77.6,1H24c-3.4,0-7,3.1-7,6.5v111.9c0,3.4,3.6,5.6,7,5.6
	h81.8C109.3,125,113,122.9,113,119.4z M70,33.4c0-1.3,0.9-2.4,2.1-2.9c1.7-0.7,4.2-1.7,5.6-2.6c1.4-0.9,3-3.1,4-4.5
	c0.6-0.9,1.6-1.4,2.6-1.4h3.6c1.7,0,3.1,1.5,3.1,3.2v30c0,1.7-1.4,2.8-3.1,2.8h-4.1C82,58,81,56.9,81,55.2V40.3
	c0-2.2-2.4-3.7-4.4-2.9c-0.5,0.2-1.5,0.4-2.3,0.7c-2,0.6-4.3-0.8-4.3-3V33.4z M56.9,105c-2.4,2.5-5.8,3.8-10,3.8
	c-4.2,0-7.7-1.4-10.4-4.1c-2.6-2.8-3.9-7.5-3.9-14.3c0-6.6,1.4-11.5,4.3-14.5c2.4-2.5,5.8-3.8,10-3.8c4.2,0,7.6,1.3,10,3.9
	c2.8,3,4.3,7.9,4.3,14.6C61.2,97.1,59.7,102,56.9,105z M56.9,55.4c-2.4,2.5-5.8,3.8-10,3.8c-4.2,0-7.7-1.4-10.4-4.1
	c-2.6-2.8-3.9-7.5-3.9-14.3c0-6.6,1.4-11.5,4.3-14.5c2.4-2.5,5.8-3.8,10-3.8c4.2,0,7.6,1.3,10,3.9c2.8,3,4.3,7.9,4.3,14.6
	C61.2,47.5,59.7,52.4,56.9,55.4z M92.9,105c-2.4,2.5-5.8,3.8-10,3.8c-4.2,0-7.7-1.4-10.4-4.1c-2.6-2.8-3.9-7.5-3.9-14.3
	c0-6.6,1.4-11.5,4.3-14.5c2.4-2.5,5.8-3.8,10-3.8c4.2,0,7.6,1.3,10,3.9c2.8,3,4.3,7.9,4.3,14.6C97.1,97.1,95.7,102,92.9,105z" fill="#C9C9C9"/>
<path d="M48.8,30.5c-0.6-0.4-1.2-0.6-1.9-0.6c-0.7,0-1.4,0.2-2,0.6c-0.5,0.4-1,1.1-1.3,2.2c-0.5,1.6-0.8,4.3-0.8,8.2
	c0,3.9,0.2,6.5,0.7,7.9c0.5,1.6,1.1,2.2,1.4,2.4c0.6,0.4,1.2,0.6,1.9,0.6c0.7,0,1.4-0.2,2-0.6c0.5-0.4,1-1.1,1.3-2.2
	c0.5-1.6,0.8-4.3,0.8-8.2s-0.2-6.5-0.7-7.9C49.7,31.4,49.2,30.7,48.8,30.5z" fill="#C9C9C9"/>
<path d="M48.8,80.1c-0.6-0.4-1.2-0.6-1.9-0.6c-0.7,0-1.4,0.2-2,0.6c-0.5,0.4-1,1.1-1.3,2.2c-0.5,1.6-0.8,4.3-0.8,8.2
	c0,3.9,0.2,6.5,0.7,7.9c0.5,1.6,1.1,2.2,1.4,2.4c0.6,0.4,1.2,0.6,1.9,0.6c0.7,0,1.4-0.2,2-0.6c0.5-0.4,1-1.1,1.3-2.2
	c0.5-1.6,0.8-4.3,0.8-8.2c0-3.9-0.2-6.5-0.7-7.9C49.7,81,49.2,80.3,48.8,80.1z" fill="#C9C9C9"/>
<path d="M84.8,80.1c-0.6-0.4-1.2-0.6-1.9-0.6c-0.7,0-1.4,0.2-2,0.6c-0.5,0.4-1,1.1-1.3,2.2c-0.5,1.6-0.8,4.3-0.8,8.2
	c0,3.9,0.2,6.5,0.7,7.9c0.5,1.6,1.1,2.2,1.4,2.4c0.6,0.4,1.2,0.6,1.9,0.6c0.7,0,1.4-0.2,2-0.6c0.5-0.4,1-1.1,1.3-2.2
	c0.5-1.6,0.8-4.3,0.8-8.2c0-3.9-0.2-6.5-0.7-7.9C85.7,81,85.2,80.3,84.8,80.1z" fill="#C9C9C9"/>
</svg>
