<?xml version="1.0" encoding="utf-8"?>
<!-- Generator: Adobe Illustrator 17.0.0, SVG Export Plug-In . SVG Version: 6.00 Build 0)  -->
<!DOCTYPE svg PUBLIC "-//W3C//DTD SVG 1.1//EN" "http://www.w3.org/Graphics/SVG/1.1/DTD/svg11.dtd">
<svg version="1.1" xmlns="http://www.w3.org/2000/svg" xmlns:xlink="http://www.w3.org/1999/xlink" x="0px" y="0px" width="32px"
	 height="32px" viewBox="0 0 32 32" enable-background="new 0 0 32 32" xml:space="preserve">
<g id="Слой_6" display="none">
	<path display="inline" fill="#9C9C9C" d="M21,2H6v28h20V7L21,2z M22,27H10V6h8v4h4V27z M22,8h-2V6h2V8z"/>
</g>
<g id="Слой_2">
</g>
<g id="Слой_3">
	<circle fill="#29A86B" cx="20" cy="22" r="9"/>
</g>
<g id="Слой_5">
	<path fill="#9C9C9C" d="M10.2351074,27H10v-0.4879761c-0.6359863-1.3881836-1-2.9268799-1-4.5537109
		s0.3640137-3.1655273,1-4.5537109V6h8v4h4v1.1972046c1.4555054,0.2745972,2.8092041,0.8336792,4,1.6224976V7l-5-5H6v28h6.5319214
		C11.6038818,29.1425171,10.8230591,28.1314697,10.2351074,27z M20,6h2v2h-2V6z"/>
</g>
<g id="Слой_4">
	<g>
		<path d="M17,26h-2v-2h2V26h5v-7h-5v-2h7v9h-2v2h-5V26z"/>
	</g>
</g>
</svg>
