<?xml version="1.0" encoding="utf-8"?>
<!-- Generator: Adobe Illustrator 16.0.0, SVG Export Plug-In . SVG Version: 6.00 Build 0)  -->
<!DOCTYPE svg PUBLIC "-//W3C//DTD SVG 1.1//EN" "http://www.w3.org/Graphics/SVG/1.1/DTD/svg11.dtd">
<svg version="1.1" id="Layer_1" xmlns="http://www.w3.org/2000/svg" xmlns:xlink="http://www.w3.org/1999/xlink" x="0px" y="0px"
	 width="126px" height="126px" viewBox="0 0 126 126" enable-background="new 0 0 126 126" xml:space="preserve">
<path d="M103.207,49.021h-2.449V37.203c0-0.074-0.012-0.148-0.021-0.223c-0.004-0.469-0.154-0.93-0.475-1.295L80.596,13.22
	c-0.006-0.006-0.012-0.008-0.016-0.014c-0.117-0.131-0.254-0.24-0.398-0.334c-0.043-0.029-0.086-0.053-0.131-0.078
	c-0.125-0.068-0.258-0.125-0.395-0.166c-0.037-0.01-0.07-0.025-0.107-0.035c-0.148-0.035-0.303-0.057-0.459-0.057H30.758
	c-2.207,0-4,1.795-4,4v32.484h-2.449c-3.157,0-5.717,2.559-5.717,5.717v29.73c0,3.156,2.56,5.717,5.717,5.717h2.449v20.352
	c0,2.205,1.793,4,4,4h66c2.205,0,4-1.795,4-4V90.185h2.449c3.157,0,5.717-2.561,5.717-5.717v-29.73
	C108.924,51.58,106.364,49.021,103.207,49.021z M30.758,16.537H77.09v20.465c0,1.105,0.896,2,2,2h17.668v10.02h-66V16.537z
	 M73.578,84.16h-7.268l-2.303-7.667h-8.553l-2.129,7.667h-7.002l9.131-29.868h8.861L73.578,84.16z M27.313,83.939l0.756-5.451
	c0.93,0.31,2.125,0.531,3.455,0.531c2.836,0,4.609-1.286,4.609-5.938V54.292h6.734V73.17c0,8.509-4.078,11.476-10.635,11.476
	C30.682,84.646,28.643,84.382,27.313,83.939z M96.758,109.453h-66V90.185h66V109.453z M93.211,84.16
	c-0.486-0.841-1.195-3.279-2.082-6.958c-0.799-3.723-2.082-4.742-4.83-4.785h-2.037V84.16H77.57V54.691
	c2.172-0.354,5.404-0.62,8.994-0.62c4.432,0,7.533,0.664,9.662,2.349c1.771,1.418,2.746,3.501,2.746,6.247
	c0,3.812-2.703,6.427-5.273,7.357v0.133c2.082,0.841,3.236,2.834,3.988,5.583c0.932,3.368,1.861,7.269,2.436,8.42H93.211z" fill="#C9C9C9"/>
<path d="M87.318,59.08c-1.641,0-2.57,0.132-3.057,0.221v8.242h2.656c3.369,0,5.363-1.685,5.363-4.299
	C92.281,60.496,90.42,59.123,87.318,59.08z" fill="#C9C9C9"/>
<path d="M61.17,65.105c-0.531-1.772-1.063-3.989-1.506-5.761h-0.088c-0.443,1.772-0.889,4.032-1.373,5.761l-1.775,6.335h6.604
	L61.17,65.105z" fill="#C9C9C9"/>
</svg>
