<?xml version="1.0" encoding="utf-8"?>
<!-- Generator: Adobe Illustrator 17.0.0, SVG Export Plug-In . SVG Version: 6.00 Build 0)  -->
<!DOCTYPE svg PUBLIC "-//W3C//DTD SVG 1.1//EN" "http://www.w3.org/Graphics/SVG/1.1/DTD/svg11.dtd">
<svg version="1.1" xmlns="http://www.w3.org/2000/svg" xmlns:xlink="http://www.w3.org/1999/xlink" x="0px" y="0px" width="32px"
	 height="32px" viewBox="0 0 32 32" enable-background="new 0 0 32 32" xml:space="preserve">
<g id="Слой_4">
</g>
<g id="Слой_6">
</g>
<g id="Слой_3">
	<path fill="#71A7C7" d="M32,19h-3.2307129C28.005188,15.6375122,25.3624878,12.994812,22,12.2307129V9h-4v3.2307129
		C14.6375122,12.994812,11.994812,15.6375122,11.2307129,19H8v4h3.2307129C11.994873,26.3624878,14.6375122,29.005127,18,29.7692871
		V32h4v-2.2307129C25.3624878,29.005127,28.005127,26.3624878,28.7692871,23H32V19z M20,27c-3.3137207,0-6-2.6862793-6-6
		s2.6862793-6,6-6s6,2.6862793,6,6S23.3137207,27,20,27z"/>
</g>
<g id="Слой_5">
	<g>
		<path fill="#BD9662" d="M9.769165,24H6v-6v-6h8.0571899C14.9171143,11.5422974,15.8878784,11.1836548,17,10.935791V8V7l-3-3H2v24
			h9.5067749C10.6993408,26.8983154,10.1187134,25.5682373,9.769165,24z"/>
		<path fill="#BD9662" d="M23,10.935791C24.1121216,11.1836548,25.0828247,11.5422974,25.9428101,12H26v0.0335083
			c1.9784546,1.0717773,3.291687,2.7460938,4,5.1549072V17v-3V8h-7V10.935791z"/>
		<path fill="#BD9662" d="M28.4932251,28H30v-3.1802368C29.647522,26.0325317,29.1530762,27.0997314,28.4932251,28z"/>
	</g>
</g>
</svg>
