<?xml version="1.0" encoding="utf-8"?>
<!-- Generator: Adobe Illustrator 17.0.0, SVG Export Plug-In . SVG Version: 6.00 Build 0)  -->
<!DOCTYPE svg PUBLIC "-//W3C//DTD SVG 1.1//EN" "http://www.w3.org/Graphics/SVG/1.1/DTD/svg11.dtd">
<svg version="1.1" xmlns="http://www.w3.org/2000/svg" xmlns:xlink="http://www.w3.org/1999/xlink" x="0px" y="0px" width="32px"
	 height="32px" viewBox="0 0 32 32" enable-background="new 0 0 32 32" xml:space="preserve">
<g id="Слой_4">
	<polygon fill="#D79D53" points="18,8 14,4 2,4 2,28 13,28 13,24 6,24 6,12 26,12 26,14 28,14 28,28 30,28 30,8 	"/>
</g>
<g id="Слой_3">
	<rect x="14" y="15" fill="#D79D53" width="6" height="14"/>
	<rect x="21" y="15" fill="#D79D53" width="6" height="14"/>
</g>
<g id="Слой_2">
	<linearGradient id="SVGID_1_" gradientUnits="userSpaceOnUse" x1="17" y1="24" x2="17" y2="16">
		<stop  offset="0" style="stop-color:#FFFFFF"/>
		<stop  offset="1" style="stop-color:#000000;stop-opacity:0.5"/>
	</linearGradient>
	<rect x="15" y="16" fill="url(#SVGID_1_)" width="4" height="8"/>
	<linearGradient id="SVGID_2_" gradientUnits="userSpaceOnUse" x1="24" y1="24" x2="24" y2="16">
		<stop  offset="0" style="stop-color:#FFFFFF"/>
		<stop  offset="1" style="stop-color:#000000;stop-opacity:0.5"/>
	</linearGradient>
	<rect x="22" y="16" fill="url(#SVGID_2_)" width="4" height="8"/>
	<linearGradient id="SVGID_3_" gradientUnits="userSpaceOnUse" x1="17" y1="28" x2="17" y2="26">
		<stop  offset="0" style="stop-color:#FFFFFF"/>
		<stop  offset="1" style="stop-color:#000000;stop-opacity:0.5"/>
	</linearGradient>
	<rect x="15" y="26" fill="url(#SVGID_3_)" width="4" height="2"/>
	<linearGradient id="SVGID_4_" gradientUnits="userSpaceOnUse" x1="24" y1="28" x2="24" y2="26">
		<stop  offset="0" style="stop-color:#FFFFFF"/>
		<stop  offset="1" style="stop-color:#000000;stop-opacity:0.5"/>
	</linearGradient>
	<rect x="22" y="26" fill="url(#SVGID_4_)" width="4" height="2"/>
</g>
</svg>
