<?xml version="1.0" encoding="UTF-8" standalone="no"?>
<!-- Created with Inkscape (http://www.inkscape.org/) -->

<svg
   xmlns:dc="http://purl.org/dc/elements/1.1/"
   xmlns:cc="http://creativecommons.org/ns#"
   xmlns:rdf="http://www.w3.org/1999/02/22-rdf-syntax-ns#"
   xmlns:svg="http://www.w3.org/2000/svg"
   xmlns="http://www.w3.org/2000/svg"
   xmlns:xlink="http://www.w3.org/1999/xlink"
   version="1.1"
   width="360"
   height="334.98999"
   viewBox="0 0 360 334.99"
   id="Layer_1"
   xml:space="preserve">

<g
   id="Layer_1_1_">
	<g
   id="g3239">
		<path
   d="m 254.178,64.147 1.326,-1.104 c 3.53,-2.928 3.926,-7.657 4.352,-12.684 0.342,-4.045 0.695,-8.23 2.862,-11.652 3.982,-6.284 10.286,-10.222 15.479,-12.563 -3.109,-1.317 -8.951,-3.28 -16.155,-3.28 -3.979,0 -7.862,0.602 -11.556,1.794 -15.039,4.85 -25.666,22.377 -26.869,24.433 l -0.451,0.713 -11.209,-5.271 0.57,-0.91 c 0.132,-0.212 14.199,-21.641 33.924,-28.001 5.275,-1.704 10.576,-2.564 15.756,-2.564 18.983,0 30.193,11.317 30.289,11.431 l 5.317,6.216 -8.022,1.573 c -0.133,0.027 -13.479,2.819 -19.006,11.541 -0.916,1.45 -1.156,4.317 -1.416,7.361 -0.151,1.81 0.229,3.574 0.599,5.279 0.802,3.697 1.63,7.521 -3.046,11.397 l -0.406,0.337 -12.338,-4.046 z"
   id="path3401"
    /><path
   d="M 113.063,69.061"
   id="path3265"
    />
		<path
   d="m 79.701,35.576 -1.656,-1.049 c -4.883,0.165 1.656,1.049 1.656,1.049 z"
   id="path3267"
    />
		
		
		
		<path
   d="M 145.249,257.84"
   id="path3275"
    />
		<path
   d="M 141.859,40.528 C 141.028,23.072 155.338,9.169 160.296,8.577 160.57,11.535 160.02,23.073 164.977,26.621 166.42,17.197 171.3,6.807 190.57,0 c -4.127,10.946 -0.551,20.115 1.152,24.365 13.159,-11.944 22.025,-9.97 22.025,-9.97 0,0 -9.143,15.777 -5.567,26.129 -26.416,-2.071 -66.192,2.807 -66.321,0.004 z"
   id="path3277"
    />
		<path
   d="M 85.857,67.117 C 79.554,61.888 84.252,57.035 83.754,51.094 83.483,47.933 83.233,44.95 82.191,43.305 76.391,34.146 62.708,31.367 62.571,31.338 L 56.149,30.08 60.4,25.107 c 0.551,-0.644 18.009,-17.301 45.025,-8.579 18.898,6.095 32.888,26.763 33.409,27.598 l -9.476,4.456 C 129.247,48.406 118.187,28.979 101.974,23.751 88.868,19.522 76.789,23.545 71.615,26.182 c 5.5,2.196 12.691,6.195 17.024,13.036 2.044,3.231 2.389,7.299 2.722,11.238 0.439,5.215 0.85,10.138 4.688,13.326 l -10.192,3.335 z"
   id="path3279"
    />
		<path
   d="m 69.023,143.45 c 0,0 7.941,-9.847 10.293,-29.008 0.924,-7.547 -0.717,-22.433 -3.343,-28.16 0.477,14.079 -3.102,28.16 -3.102,28.16 0,0 -2.413,26.144 -3.848,29.008 z"
   id="path3281"
    />
		<path
   d="m 110.896,57.172 c -0.004,-0.021 -2.548,-11.138 -9.601,-16.75 -9.949,-7.914 -22.097,-3.704 -22.214,-3.667 l -1.764,-5.449 c 0.588,-0.191 14.473,-4.566 27.269,4.429 12.873,9.046 14.418,17.246 14.552,18.152 l -8.242,3.285 z"
   id="path3283"
    />
		<path
   d="m 93.964,136.388 c 0,0 -4.166,-5.964 -3.417,-12.523 0.373,-3.239 1.874,-6.564 4.554,-7.744 4.98,-2.188 7.187,3.457 7.187,3.457 0,0 -7.009,1.73 -8.324,16.81 z"
   id="path3285"
    />
		<path
   d="M 145.249,257.84"
   id="path3287"
    />
		<path
   d="m 139.707,145.478 c 0.174,0.325 0.263,0.507 0.263,0.507 0,0 -12.994,9.752 -26.311,-0.144 -7.128,-5.302 -6.455,-18.417 -4.271,-23.979 5.679,1.287 10.496,3.607 14.522,6.316 -5.088,-4.541 -9.542,-7.884 -9.53,-7.961 l -5.783,-1.637 -11.24,-3.854 c -0.144,0.857 -4.244,20.074 7.59,33.168 5.245,5.806 29.835,18.808 41.51,-3.424 l -6.75,1.008 z"
   id="path3289"
    />
		<path
   d="m 138.49,146.907 c 7.316,11.135 25.775,4.772 25.457,-7 0,0 -12.334,6.807 -23.231,-5.726 -6.362,-7.317 -26.748,-27.492 -54.394,-20.787 19.092,4.198 44.367,21.641 52.168,33.513 z"
   id="path3291"
    />
		<g
   id="g3293"
   >
			<path
   d="M 145.249,257.84"
   id="path3295"
    />
		</g>
		<path
   d="m 83.739,178.333 c 1.76,1.017 7.967,7.445 7.971,17.059 0,4.821 -0.48,29.04 -2.866,43.836 3.589,2.332 6.089,2.828 9.663,5.205 1.789,-17.136 3.072,-41.972 2.474,-51.998 -0.684,-11.429 -6.803,-19.099 -12.478,-22.37 -1.777,-1.022 -3.634,-2.027 -5.504,-3.038 -9.72,-5.252 -19.771,-10.685 -19.771,-19.962 0,-7.257 2.821,-9.527 5.808,-11.933 l 0.322,-0.261 c 1.982,-1.601 4.225,-3.417 5.554,-6.399 3.626,-8.153 4.219,-28.921 0,-34.193 -2.103,-2.627 -7.738,-11.461 -6.118,-17.397 0.617,-2.266 2.044,-3.945 4.367,-5.135 2.458,-1.259 5.779,-1.897 9.867,-1.897 8.03,0 16.936,2.444 21.531,3.899 16.419,5.204 36.231,20.208 41.91,24.683 0.163,0.125 0.259,0.198 0.276,0.21 l 3.634,2.527 -2.273,-3.803 c -0.14,-0.237 -14.534,-23.905 -40.271,-32.583 -5.007,-1.688 -14.844,-4.521 -24.511,-4.521 -5.756,0 -10.64,1.005 -14.507,2.985 -4.713,2.411 -7.905,6.258 -9.231,11.121 -3.25,11.921 7.335,25.194 7.696,25.618 1.234,2.203 1.757,18.206 -1.094,24.611 -0.392,0.884 -1.467,1.753 -2.828,2.851 -0.426,0.345 -0.903,0.703 -1.408,1.086 -4.022,3.036 -10.104,7.623 -10.104,18.196 0,14.467 14.662,22.311 26.445,28.618 1.933,1.04 3.778,2.024 5.446,2.985 z"
   id="path3297"
    />
		
		<g
   id="g3309"
   >
			<g
   id="g3311"
   >
				<path
   d="m 110.896,57.172 c -0.004,-0.021 -2.548,-11.138 -9.601,-16.75 -9.949,-7.914 -22.097,-3.704 -22.214,-3.667 l -1.764,-5.449 c 0.588,-0.191 14.473,-4.566 27.269,4.429 12.873,9.046 14.418,17.246 14.552,18.152 l -8.242,3.285 z"
   id="path3313"
    />
			</g>
			<g
   id="g3315"
   >
				<path
   d="m 110.212,58.472 -0.248,-1.094 c -0.026,-0.107 -2.521,-10.844 -9.266,-16.207 -3.844,-3.061 -8.48,-4.615 -13.771,-4.615 -4.13,0 -7.199,0.986 -7.534,1.102 l -0.912,0.303 -2.366,-7.269 0.907,-0.293 c 0.407,-0.129 4.092,-1.278 9.305,-1.278 6.877,0 13.379,2.018 18.811,5.832 13.195,9.273 14.806,17.848 14.944,18.794 l 0.116,0.748 -9.986,3.977 z M 86.928,34.65 c 5.652,0 10.829,1.738 14.961,5.024 5.989,4.77 8.806,13.191 9.658,16.21 l 6.492,-2.587 c -0.588,-2.292 -3.176,-9.171 -14,-16.78 -5.179,-3.64 -11.136,-5.484 -17.711,-5.484 -3.608,0 -6.411,0.574 -7.796,0.924 l 1.171,3.619 c 1.358,-0.365 3.971,-0.926 7.225,-0.926 z"
   id="path3317"
    />
			</g>
		</g>
		<path
   d="m 145.715,295.482 0,0 c -2.82,0 -5.698,-1.023 -7.693,-2.75 -1.527,-1.316 -6.691,-6.059 -8.968,-11.87 -0.85,-2.173 -0.659,-3.911 0.574,-5.162 0.85,-0.857 2.614,-1.882 6.195,-1.882 l 2.548,-0.004 c 3.036,-0.003 8.148,-0.003 12.517,-0.003 h 4.189 c 2.724,0 4.677,0.589 5.8,1.737 1.442,1.482 0.98,3.367 0.577,4.359 -0.702,1.738 -3.607,7.394 -8.525,12.652 -1.761,1.884 -4.324,2.923 -7.214,2.923 z"
   id="path3319"
    />
		<path
   d="m 148.671,147.562 -10.182,-0.655 c 0,0 2.603,4.588 4.289,10.522 1.904,6.712 -1.741,16.521 -1.741,16.521 0,0 13.576,-15.37 7.634,-26.388 z"
   id="path3321"
    />
		<g
   id="g3323"
   >
			<path
   d="M 135.961,322.367 C 99.722,319.582 86.972,285.339 86.972,278.207 l 9.464,0.004 -4.732,-0.004 h 4.732 c 0.047,3.083 9.678,32.375 40.25,34.726 l -0.725,9.434 z"
   id="path3325"
    />
		</g>
		<path
   d="m 125.777,261.016 c -0.566,-3.273 -0.625,-6.377 0.066,-9.427 -2.754,-2.07 -7.696,-2.839 -11.404,-4.041 -3.032,-1.919 -18.548,1.967 -29.805,-11.656 -14.104,-17.059 -11.136,-27.244 -11.136,-27.244 -3.616,4.018 -7.121,2.487 -12.633,21.221 -5.52,18.738 2.591,31.801 17.708,44.915 7.142,6.195 17.238,8.747 25.922,9.724 -2.909,-2.921 4.969,-3.213 10.399,-5.245 -0.433,-4.384 0.292,-8.64 3.561,-12.067 1.971,-2.066 4.507,-3.301 7.138,-4.285 0.147,-0.34 0.271,-0.654 0.411,-0.98 -0.087,-0.298 -0.172,-0.599 -0.227,-0.915 z"
   id="path3327"
   style="fill:none" />
		
		<path
   d="m 125.336,255.892 c 0.038,-2.983 0.647,-5.872 2.089,-8.751 0.101,-0.198 0.218,-0.388 0.326,-0.581 -9.421,-0.081 -20.271,-0.983 -29.51,-4.681 C 88.086,237.817 75.383,223.92 73.2,207.592 c 0,0 -19.125,14.758 -13.505,46.346 5.275,29.662 30.096,39.332 58.404,40.968 0.015,-0.192 -3.184,-6.8 -2.173,-10.845 -16.074,1.168 -34.049,-5.042 -42.726,-19.32 -7.944,-13.068 -5.716,-35.379 -2.451,-38.648 7.964,25.129 36.62,30.237 54.587,29.799 z"
   id="path3331"
    />
		<path
   d="M 176.191,294.839"
   id="path3333"
    />
		<path
   d="m 128.302,237.902 c -5.094,14.949 -15.499,27.047 -15.499,27.047 0,0 14.313,-0.651 15.103,-3.184 0.585,-1.867 12.924,-30.752 17.66,-64.589 -4.455,7.319 -16.828,39.446 -17.264,40.726 z"
   id="path3335"
    />
		
		
		
		
		
		
		
		
		
		
		
		<path
   d="M 239.106,69.061"
   id="path3359"
    />
		<path
   d="m 272.465,35.576 1.659,-1.049 c 4.884,0.165 -1.659,1.049 -1.659,1.049 z"
   id="path3361"
    />
		
		<path
   d="m 205.016,146.942 c 0,0 8.91,8.91 22.59,6.044 13.684,-2.862 21.957,-8.908 22.594,-19.409 0.635,-10.5 -2.863,-14.636 -2.863,-14.636 0,0 -15.275,4.776 -22.593,11.14 -7.318,6.364 -12.726,16.544 -19.728,16.861 z"
   id="path3365"
   style="fill:none" />
		
		<path
   d="M 206.916,257.84"
   id="path3369"
    />
		
		<path
   d="m 283.14,143.45 c 0,0 -7.937,-9.847 -10.289,-29.008 -0.924,-7.547 0.714,-22.433 3.339,-28.16 -0.477,14.079 3.105,28.16 3.105,28.16 0,0 2.414,26.144 3.845,29.008 z"
   id="path3373"
    />
		<path
   d="m 241.271,57.172 c 0.004,-0.021 2.548,-11.138 9.602,-16.75 9.948,-7.914 22.097,-3.704 22.21,-3.667 l 1.769,-5.449 c -0.59,-0.191 -14.473,-4.566 -27.273,4.429 -12.873,9.046 -14.414,17.246 -14.552,18.152 l 8.244,3.285 z"
   id="path3375"
    />
		<path
   d="m 258.203,136.388 c 0,0 4.166,-5.964 3.413,-12.523 -0.369,-3.239 -1.87,-6.564 -4.55,-7.744 -4.98,-2.188 -7.188,3.457 -7.188,3.457 0,0 7.01,1.73 8.325,16.81 z"
   id="path3377"
    />
		<path
   d="M 206.916,257.84"
   id="path3379"
    />
		<path
   d="m 212.461,145.478 c -0.174,0.325 -0.264,0.507 -0.264,0.507 0,0 12.99,9.752 26.307,-0.144 7.133,-5.302 6.459,-18.417 4.271,-23.979 -5.676,1.287 -10.492,3.607 -14.52,6.316 5.089,-4.541 9.543,-7.884 9.527,-7.961 l 5.787,-1.637 11.239,-3.852 c 0.144,0.857 4.243,20.074 -7.595,33.168 -5.244,5.806 -29.834,18.808 -41.506,-3.424 l 6.754,1.006 z"
   id="path3381"
    />
		<path
   d="m 213.674,146.907 c -7.316,11.135 -25.77,4.772 -25.451,-7 0,0 12.33,6.807 23.227,-5.726 6.362,-7.317 26.752,-27.492 54.397,-20.787 -19.091,4.198 -44.368,21.641 -52.173,33.513 z"
   id="path3383"
    />
		<g
   id="g3385"
   >
			<path
   d="M 206.916,257.84"
   id="path3387"
    />
		</g>
		<path
   d="m 268.431,178.333 c -1.761,1.017 -7.971,7.445 -7.971,17.059 -0.004,4.821 0.477,29.04 2.866,43.836 -3.59,2.332 -6.09,2.828 -9.664,5.205 -1.789,-17.136 -3.076,-41.972 -2.474,-51.998 0.683,-11.429 6.8,-19.099 12.474,-22.37 1.777,-1.022 3.635,-2.027 5.509,-3.038 9.72,-5.252 19.771,-10.685 19.771,-19.962 0,-7.257 -2.824,-9.527 -5.811,-11.933 l -0.318,-0.261 c -1.982,-1.601 -4.229,-3.417 -5.554,-6.399 -3.627,-8.153 -4.222,-28.921 -0.004,-34.193 2.103,-2.627 7.742,-11.461 6.122,-17.397 -0.621,-2.266 -2.049,-3.945 -4.371,-5.135 -2.459,-1.259 -5.775,-1.897 -9.867,-1.897 -8.025,0 -16.936,2.444 -21.527,3.899 -16.419,5.204 -36.231,20.208 -41.914,24.683 -0.162,0.125 -0.256,0.198 -0.274,0.21 l -3.636,2.527 2.273,-3.803 c 0.144,-0.237 14.535,-23.905 40.271,-32.583 5.008,-1.688 14.844,-4.521 24.512,-4.521 5.756,0 10.635,1.005 14.506,2.985 4.714,2.411 7.904,6.258 9.232,11.121 3.25,11.921 -7.336,25.194 -7.697,25.618 -1.234,2.203 -1.756,18.206 1.091,24.611 0.392,0.884 1.467,1.753 2.831,2.851 0.426,0.345 0.899,0.703 1.408,1.086 4.023,3.036 10.102,7.623 10.102,18.196 0,14.467 -14.662,22.311 -26.441,28.618 -1.935,1.04 -3.782,2.024 -5.445,2.985 z"
   id="path3389"
    />
		<path
   d="m 250.94,65.415 c -2.332,-3.95 -8.296,-11.577 -22.042,-18.279 -15.34,-7.477 -33.094,-11.272 -52.777,-11.281 v -0.004 c 0,0 -0.026,0 -0.038,0 0,0 -0.026,0 -0.038,0 v 0.002 c -19.686,0.01 -37.443,3.805 -52.779,11.281 -13.746,6.703 -19.708,14.329 -22.042,18.279 l -1.001,1.325 11.771,2.62 0.373,-0.471 0.197,-0.432 c 0.182,-0.778 1.76,-4.978 14.884,-11.378 14.03,-6.843 30.394,-10.312 48.633,-10.318 18.241,0.006 34.598,3.475 48.627,10.318 13.125,6.4 14.708,10.6 14.888,11.378 l 0.196,0.432 0.369,0.471 11.775,-2.62 -0.996,-1.323 z"
   id="path3391"
    />
		
		<g
   id="g3403"
   >
			<g
   id="g3405"
   >
				<path
   d="m 241.271,57.172 c 0.004,-0.021 2.548,-11.138 9.602,-16.75 9.948,-7.914 22.097,-3.704 22.21,-3.667 l 1.769,-5.449 c -0.59,-0.191 -14.473,-4.566 -27.273,4.429 -12.873,9.046 -14.414,17.246 -14.552,18.152 l 8.244,3.285 z"
   id="path3407"
    />
			</g>
			<g
   id="g3409"
   >
				<path
   d="m 231.975,54.495 0.111,-0.748 c 0.14,-0.946 1.752,-9.519 14.945,-18.794 5.428,-3.814 11.932,-5.832 18.809,-5.832 5.216,0 8.901,1.147 9.309,1.278 l 0.906,0.293 -2.365,7.269 -0.913,-0.303 c -0.341,-0.115 -3.409,-1.102 -7.537,-1.102 -5.29,0 -9.923,1.552 -13.767,4.615 -6.746,5.365 -9.243,16.101 -9.266,16.207 l -0.248,1.092 -9.984,-3.975 z m 40.49,-18.919 1.175,-3.619 c -1.386,-0.352 -4.192,-0.924 -7.8,-0.924 -6.574,0 -12.533,1.846 -17.709,5.484 -10.828,7.611 -13.416,14.488 -14.003,16.78 l 6.497,2.587 c 0.85,-3.021 3.664,-11.442 9.656,-16.21 4.135,-3.286 9.306,-5.024 14.958,-5.024 3.25,0 5.868,0.561 7.226,0.926 z"
   id="path3411"
    />
			</g>
		</g>
		<path
   d="m 199.242,292.559 c -4.917,-5.257 -7.826,-10.914 -8.529,-12.652 -0.402,-0.99 -0.86,-2.877 0.582,-4.359 1.124,-1.148 3.072,-1.737 5.796,-1.737 h 4.192 c 4.369,0 9.478,0 12.516,0.003 l 2.548,0.004 c 3.579,0 5.342,1.024 6.191,1.882 1.234,1.249 1.427,2.987 0.577,5.162 -2.277,5.812 -7.442,10.555 -8.969,11.87 -2,1.727 -4.871,2.75 -7.691,2.75 l 0,0 c -2.891,0 -5.452,-1.039 -7.213,-2.923 z"
   id="path3413"
    />
		<path
   d="m 203.498,147.562 10.176,-0.655 c 0,0 -2.599,4.588 -4.285,10.522 -1.904,6.712 1.741,16.521 1.741,16.521 0,0 -13.577,-15.37 -7.632,-26.388 z"
   id="path3415"
    />
		
		<path
   d="m 193.952,111.141 c -6.509,3.939 -12.322,5.304 -17.867,5.425 -5.546,-0.121 -11.357,-1.486 -17.867,-5.425 0,0 9.479,11.567 17.819,11.656 v 0.007 c 0.015,0 0.03,-0.004 0.047,-0.004 0.015,0 0.03,0.004 0.047,0.004 v -0.007 c 8.338,-0.089 17.821,-11.656 17.821,-11.656 z"
   id="path3419"
    />
		<g
   id="g3421"
   >
			<path
   d="m 216.207,322.367 -0.726,-9.435 c 30.565,-2.351 40.196,-31.643 40.246,-34.726 h 9.464 c 0.004,7.131 -12.75,41.376 -48.984,44.161 z"
   id="path3423"
    />
		</g>
		<path
   d="m 226.389,261.016 c 0.569,-3.273 0.624,-6.377 -0.066,-9.427 2.758,-2.07 7.696,-2.839 11.404,-4.041 3.032,-1.919 18.552,1.967 29.809,-11.656 14.104,-17.059 11.132,-27.244 11.132,-27.244 3.619,4.018 7.121,2.487 12.637,21.221 5.52,18.738 -2.595,31.801 -17.712,44.915 -7.141,6.195 -17.238,8.747 -25.922,9.724 2.909,-2.921 -4.969,-3.213 -10.396,-5.245 0.434,-4.384 -0.295,-8.64 -3.563,-12.067 -1.967,-2.066 -4.507,-3.301 -7.136,-4.285 -0.148,-0.34 -0.275,-0.654 -0.411,-0.98 0.087,-0.298 0.169,-0.599 0.224,-0.915 z"
   id="path3425"
   style="fill:none" />
		
		<path
   d="m 226.827,255.892 c -0.034,-2.983 -0.647,-5.872 -2.085,-8.751 -0.102,-0.198 -0.219,-0.388 -0.326,-0.581 9.42,-0.081 20.271,-0.983 29.51,-4.681 10.154,-4.062 22.857,-17.959 25.041,-34.287 0,0 19.125,14.758 13.505,46.346 -5.279,29.662 -30.097,39.332 -58.404,40.968 -0.015,-0.192 3.185,-6.8 2.173,-10.845 16.07,1.168 34.045,-5.042 42.727,-19.32 7.939,-13.068 5.712,-35.379 2.447,-38.648 -7.961,25.129 -36.62,30.237 -54.588,29.799 z"
   id="path3429"
    />
		<g
   id="g3431"
   >
			<path
   d="M 175.978,294.839"
   id="path3433"
    />
			<path
   d="m 238.258,263.332 c -3.382,-3.656 -9.6,-8.014 -23.937,-8.014 0,0 -27.182,-0.016 -38.188,-0.023 l 0,0 c -0.015,0 -0.034,0 -0.047,0 0,0 -0.034,0 -0.047,0 l 0,0 c -11.005,0.008 -38.194,0.023 -38.194,0.023 -14.333,0 -20.551,4.359 -23.935,8.014 -4.929,5.321 -5.702,12.723 -2.292,21.975 9.061,24.626 21.794,49.645 64.419,49.68 v 0.004 c 0.016,0 0.03,-0.004 0.047,-0.004 0.015,0 0.03,0.004 0.047,0.004 v -0.004 c 42.621,-0.037 55.354,-25.054 64.418,-49.68 3.41,-9.252 2.635,-16.654 -2.291,-21.975 z m -6.636,20.248 c -4.317,12.366 -15.919,42.298 -55.539,42.35 -39.625,-0.052 -51.223,-29.983 -55.54,-42.35 -2.389,-6.861 -2.207,-11.938 0.559,-15.092 1.889,-2.156 6.229,-4.729 16.12,-4.729 l 10.333,-0.004 c 7.623,-0.007 17.194,-0.015 28.529,-0.019 11.331,0.004 20.907,0.012 28.528,0.019 l 10.329,0.004 c 9.894,0 14.233,2.572 16.123,4.729 2.763,3.157 2.947,8.231 0.558,15.092 z"
   id="path3435"
    />
		</g>
		<path
   d="m 223.863,237.902 c 5.094,14.949 15.498,27.047 15.498,27.047 0,0 -14.312,-0.651 -15.103,-3.184 -0.581,-1.867 -12.921,-30.752 -17.657,-64.589 4.452,7.319 16.825,39.446 17.262,40.726 z"
   id="path3437"
    />
	</g>
</g>
</svg>