<?xml version="1.0" encoding="UTF-8" standalone="no"?>
<svg width="154px" height="194px" viewBox="0 0 154 194" version="1.1" xmlns="http://www.w3.org/2000/svg" xmlns:xlink="http://www.w3.org/1999/xlink" xmlns:sketch="http://www.bohemiancoding.com/sketch/ns">
    <!-- Generator: Sketch 3.0 (7574) - http://www.bohemiancoding.com/sketch -->
    <title>schema</title>
    <desc>Created with Sketch.</desc>
    <defs></defs>
    <g id="Page-1" stroke="none" stroke-width="1">
        <path d="M136.269,73.972 C143.392,70.511 149.309,66.468 153.915,61.919 L153.915,76.794 C153.915,97.435 119.46,114.167 76.957,114.167 C34.456,114.167 0,97.435 0,76.794 L0,61.919 C4.604,66.468 10.519,70.511 17.644,73.972 C33.675,81.757 54.741,86.044 76.957,86.044 C99.175,86.044 120.239,81.757 136.269,73.972 L136.269,73.972 Z M76.957,0.089 C34.456,0.089 0,16.821 0,37.466 C0,58.105 34.456,74.837 76.957,74.837 C119.46,74.837 153.915,58.105 153.915,37.466 C153.915,16.821 119.46,0.089 76.957,0.089 L76.957,0.089 Z M136.269,152.632 C143.392,149.173 149.309,145.128 153.915,140.581 L153.915,155.722 C153.915,176.365 119.46,193.097 76.957,193.097 C34.456,193.097 0,176.364 0,155.722 L0,140.581 C4.604,145.128 10.519,149.173 17.644,152.632 C33.675,160.417 54.741,164.706 76.957,164.706 C99.175,164.706 120.239,160.417 136.269,152.632 L136.269,152.632 Z M136.269,113.302 C143.392,109.843 149.309,105.796 153.915,101.249 L153.915,116.124 C153.915,136.765 119.46,153.497 76.957,153.497 C34.456,153.497 0,136.765 0,116.124 L0,101.249 C4.604,105.796 10.519,109.843 17.644,113.302 C33.675,121.087 54.741,125.374 76.957,125.374 C99.175,125.374 120.239,121.087 136.269,113.302 L136.269,113.302 Z" id="coin-10-icon" ></path>
    </g>
</svg>