<?xml version="1.0" encoding="utf-8"?>
<!-- Generator: Adobe Illustrator 16.0.0, SVG Export Plug-In . SVG Version: 6.00 Build 0)  -->
<!DOCTYPE svg PUBLIC "-//W3C//DTD SVG 1.1//EN" "http://www.w3.org/Graphics/SVG/1.1/DTD/svg11.dtd">
<svg version="1.1" id="Layer_1" xmlns="http://www.w3.org/2000/svg" xmlns:xlink="http://www.w3.org/1999/xlink" x="0px" y="0px"
	 width="24px" height="24px" viewBox="0 0 24 24" enable-background="new 0 0 24 24" xml:space="preserve">
<path d="M17.145,3.428c-1.892,0-3.429,1.536-3.429,3.43c0,1.264,0.693,2.357,1.714,2.953v0.475c0,0,0,3.43-3.429,3.43
	c-1.421,0-2.535,0.303-3.429,0.771V6.383c1.021-0.596,1.714-1.689,1.714-2.953C10.286,1.536,8.75,0,6.857,0S3.429,1.536,3.429,3.43
	c0,1.264,0.692,2.357,1.714,2.953v11.234c-1.022,0.596-1.714,1.688-1.714,2.953c0,1.892,1.536,3.43,3.429,3.43
	s3.429-1.538,3.429-3.43c0-0.896-0.354-1.707-0.917-2.321c0.499-0.611,1.31-1.106,2.632-1.106c6.804,0,6.856-6.857,6.856-6.857
	V9.811c1.021-0.596,1.714-1.689,1.714-2.953c0-1.894-1.537-3.43-3.429-3.43H17.145z M6.859,1.715c0.948,0,1.714,0.766,1.714,1.713
	c0,0.948-0.766,1.715-1.714,1.715S5.146,4.376,5.146,3.428C5.146,2.48,5.911,1.715,6.859,1.715z M6.859,22.285
	c-0.948,0-1.714-0.767-1.714-1.715c0-0.946,0.766-1.713,1.714-1.713s1.714,0.767,1.714,1.713
	C8.573,21.519,7.808,22.285,6.859,22.285z M17.145,8.57c-0.948,0-1.714-0.765-1.714-1.713c0-0.949,0.766-1.715,1.714-1.715
	s1.714,0.766,1.714,1.715C18.858,7.806,18.092,8.57,17.145,8.57z"/>
</svg>
